PathFileType	4	(X/Y/Z)	/home/abdul/Desktop/myosuite/custom_workspace/IK/output/S12_12_1.trc
DataRate	CameraRate	NumFrames	NumMarkers	Units	OrigDataRate	OrigDataStartFrame	OrigNumFrames
200.0	200.0	39	3	mm	200.0	781	2082
Frame#	Time	V_Shoulder			V_Elbow			V_Wrist		
		X1	Y1	Z1	X2	Y2	Z2	X3	Y3	Z3

781	3.9	-2.0783209855558984	708.9969211670349	266.2130285901389	-92.3884799304893	623.7704732651603	16.74167862679193	-0.19871009103563875	517.3062748220619	188.3375216497222
782	3.905	-2.178277504866737	709.2913813412098	266.2182629081032	-92.33627528621449	623.8087250349747	16.738694861994368	-0.2816949194728551	517.9714913911203	188.8393140572109
783	3.91	-2.2774723973828075	709.5863872983288	266.2246367258846	-92.28145942311518	623.8406683850011	16.738237490388354	-0.35767393016033555	518.6252983906058	189.34144112518214
784	3.915	-2.3759108929686854	709.8818019572594	266.23214929774	-92.22400460330984	623.866143635869	16.7403937218414	-0.4262435575434571	519.2681350600022	189.8444237529289
785	3.92	-2.473597880569079	710.1774861674184	266.2407983633586	-92.16388750336411	623.8849960263797	16.745248839332795	-0.4870199301613294	519.9004327505106	190.34875877911935
786	3.925	-2.5705379264250583	710.473298841997	266.25058011391576	-92.10108944097401	623.8970764495994	16.752885817936264	-0.5396396056388815	520.5226140596658	190.854917676479
787	3.93	-2.6667352945455196	710.7690970988515	266.26148916037465	-92.03559658534469	623.9022421834374	16.763384942616323	-0.5837602499560166	521.1350920177074	191.36334531348203
788	3.935	-2.7621939693006934	711.0647364089397	266.27351850416045	-91.96740015040746	623.9003576127805	16.77682342634466	-0.6190612597147629	521.7382693261848	191.87445878685418
789	3.94	-2.8569176799969647	711.3600707521564	266.2866595103324	-91.8964965700851	623.891294940258	16.79327503006097	-0.6452443263170675	522.3325376490338	192.38864632851624
790	3.945	-2.9509099272854296	711.654952780373	266.3009018833738	-91.82288765488691	623.8749348827271	16.812809686014734	-0.6620339411585858	522.918276956139	192.90626629041026
791	3.95	-3.04417401125046	711.9492339874706	266.3162336457181	-91.7465807291892	623.8511673505923	16.83549312603023	-0.6691778411366238	523.4958549191814	193.42764621045117
792	3.955	-3.136713061018989	712.2427648861054	266.3326411191263	-91.66758874863527	623.8198921071207	16.861386516236166	-0.6664473939623434	524.0656263593794	193.95308196263397
793	3.96	-3.228530065726354	712.5353951909248	266.3501089090236	-91.58593039716855	623.7810194049571	16.890546099794573	-0.6536379229576035	524.6279327465443	194.48283699410052
794	3.965	-3.3196279066704815	712.8269740079105	266.36861989190317	-91.50163016329613	623.7344705971122	16.92302284914986	-0.6305689712044424	525.1831017487096	195.01714165173587
795	3.97	-3.4100093904827222	713.1173500295017	266.38815520589674	-91.41471839526416	623.6801787197741	16.958862129299572	-0.5970845050995406	525.7314468314494	195.55619260061493
796	3.975	-3.499677283141016	713.4063717351078	266.4086942446062	-91.32523133491387	623.6180890443707	16.998103373562188	-0.5530530575460153	526.2732669058635	196.10015233636415
797	3.98	-3.588634344649133	713.6938875966047	266.43021465428745	-91.23321113007414	623.5481595964224	17.040779773285387	-0.4983678111900236	526.8088460241049	196.6491487932348
798	3.985	-3.676883364204567	713.9797462883627	266.4526923344684	-91.13870582543609	623.4703616388201	17.086917982899934	-0.43294662227900993	527.3384531212232	197.203275049409
799	3.99	-3.7644271956771767	714.2637969013409	266.4761014420777	-91.04176933194417	623.3846801172926	17.136537841680514	-0.35673198588154875	527.8623418020279	197.7625891307762
800	3.995	-3.8512687932210103	714.5458891607462	266.50041439915407	-90.94246137482772	623.2911140659503	17.189652113524996	-0.26969094336481714	528.3807501716096	198.32711391412556
801	4.0	-3.937411246842828	714.8258736467354	266.5256019041977	-90.84084742048645	623.1896769709355	17.246266246008435	-0.17181493317431418	528.8939007081215	198.89683713040336
802	4.005	-4.022857817752517	715.1036020176128	266.5516329472182	-90.73699858253148	623.0803970903539	17.306378149907538	-0.06311958610109603	529.402000176392	199.47171146838116
803	4.01	-4.107611973323215	715.3789272349571	266.5784748285236	-90.63099150737067	622.9633177288205	17.369978000325528	0.056355533645954026	529.9052395809321	200.0516547787741
804	4.015	-4.191677421492009	715.6517037900902	266.60609318128905	-90.52290823981278	622.8384974651145	17.437048060477	0.18654724012173762	530.4037941568997	200.6365503785369
805	4.02	-4.275058144436028	715.9217879312836	266.634451997933	-90.41283606924863	622.706010331614	17.50756252911697	0.3273690885248417	530.8978233976042	201.2262474547536
806	4.025	-4.357758431363212	716.1890378910851	266.6635136603192	-90.30086735704771	622.5659459443511	17.58148741251896	0.47871178761467004	531.3874711171575	201.8205615672215
807	4.03	-4.439782910262248	716.4533141131354	266.69323897379473	-90.18709934588767	622.4184095827184	17.65878042182327	0.6404436599085797	531.8728655469172	202.41927524851718
808	4.035	-4.52113657846189	716.7144794778318	266.7235872050642	-90.07163395180793	622.2635222180427	17.739390896489326	0.8124111478149363	532.3541194644149	203.02213870001736
809	4.04	-4.601824831856215	716.972399526193	266.75451612388764	-89.95457753984995	622.1014204904359	17.823259754495147	0.9944393637803088	532.831330353516	203.6288705820373
810	4.045	-4.681853492659234	717.2269426812754	266.78598204858434	-89.83604068421353	621.9322566335256	17.910319469833013	1.186332682460466	533.3045805946174	204.23915889594093
811	4.05	-4.7612288355596695	717.4779804664805	266.81793989530877	-89.71613791391992	621.7561983468729	18.000494077753643	1.3878753728651159	533.7739376837515	204.85266195577438
812	4.055	-4.839957612154538	717.7253877201066	266.8503432310595	-89.59498744503087	621.5734286160778	18.09369920811186	1.5988322683753173	534.239454479534	205.46900944667638
813	4.06	-4.9180470735484665	717.9690428054897	266.88314433036663	-89.47271090052375	621.3841454807779	18.189842147065317	1.818949472489714	534.7011694769607	206.08780356702908
814	4.065	-4.9955049910142915	718.208827816094	266.9162942355957	-89.34943301897006	621.1885617509495	18.28882192727461	2.047955098120907	535.1591071071194	206.7086202510306
815	4.07	-5.072339674619532	718.444628774915	266.9497428207937	-89.22528135320496	620.9869046721149	18.390529446648348	2.2855600382358805	535.6132780619569	207.3310104680985
816	4.075	-5.14855998973263	718.6763358275751	266.98343885899186	-89.10038596021023	620.7794155402642	18.494847615570933	2.531458765614052	536.0636796432922	207.95450159525046
817	4.08	-5.22417537133239	718.9038434285009	267.0173300928694	-88.97487908346156	620.5663492674917	18.60165153244427	2.7853301594825775	536.5102961353327	208.5785988583587
818	4.085	-5.299195836053879	719.1270505195922	267.05136330867157	-88.84889482901323	620.347973899543	18.710808687267583	3.0468383567806274	536.9530991999911	209.20278683793856
819	4.09	-5.373631991913922	719.3458607008128	267.08548441326326	-88.72256883660845	620.1245700866601	18.822179192872625	3.3156336258017576	537.3920482943494	209.82653103490725
